<svg xmlns="http://www.w3.org/2000/svg" viewBox="0 0 32 48" width="96" height="144">
  <!-- Pixel art farmer with pickaxe - facing left -->

  <!-- === HAT === -->
  <!-- Hat brim -->
  <rect x="6" y="3" width="14" height="1" fill="#C4983E"/>
  <rect x="5" y="4" width="16" height="1" fill="#D4A857"/>
  <!-- Hat crown -->
  <rect x="9" y="0" width="8" height="1" fill="#C4983E"/>
  <rect x="8" y="1" width="10" height="1" fill="#D4A857"/>
  <rect x="8" y="2" width="10" height="1" fill="#D4A857"/>
  <rect x="7" y="3" width="12" height="1" fill="#C4983E"/>
  <!-- Hat band -->
  <rect x="8" y="3" width="10" height="1" fill="#8B6914"/>

  <!-- === HAIR (under hat) === -->
  <rect x="8" y="5" width="1" height="2" fill="#2C1810"/>
  <rect x="17" y="5" width="1" height="2" fill="#2C1810"/>
  <rect x="8" y="7" width="1" height="1" fill="#2C1810"/>
  <rect x="17" y="7" width="1" height="1" fill="#2C1810"/>

  <!-- === FACE === -->
  <rect x="9" y="5" width="8" height="1" fill="#E8B88A"/>
  <rect x="9" y="6" width="8" height="1" fill="#E8B88A"/>
  <rect x="9" y="7" width="8" height="1" fill="#E8B88A"/>
  <rect x="9" y="8" width="8" height="1" fill="#E8B88A"/>
  <rect x="10" y="9" width="6" height="1" fill="#E8B88A"/>
  <!-- Eyes -->
  <rect x="10" y="6" width="2" height="1" fill="#1a1a1a"/>
  <rect x="14" y="6" width="2" height="1" fill="#1a1a1a"/>
  <!-- Smile -->
  <rect x="11" y="8" width="4" height="1" fill="#C4946A"/>

  <!-- === HAY STRAW in mouth === -->
  <!-- Straw sticking out to the left (facing direction) -->
  <rect x="4" y="8" width="1" height="1" fill="#D4A857"/>
  <rect x="5" y="8" width="1" height="1" fill="#D4A857"/>
  <rect x="6" y="8" width="1" height="1" fill="#C4983E"/>
  <rect x="7" y="8" width="1" height="1" fill="#C4983E"/>
  <rect x="8" y="8" width="1" height="1" fill="#C4983E"/>
  <rect x="9" y="8" width="1" height="1" fill="#D4A857"/>

  <!-- === NECK === -->
  <rect x="12" y="10" width="2" height="1" fill="#E8B88A"/>

  <!-- === SHIRT (yellow) === -->
  <rect x="10" y="11" width="6" height="1" fill="#E8C840"/>
  <rect x="10" y="12" width="6" height="1" fill="#D4B030"/>
  <!-- Shirt visible at shoulders above overalls -->
  <rect x="8" y="11" width="2" height="1" fill="#E8C840"/>
  <rect x="16" y="11" width="2" height="1" fill="#E8C840"/>

  <!-- === OVERALLS (blue) === -->
  <!-- Straps -->
  <rect x="10" y="12" width="2" height="1" fill="#4466AA"/>
  <rect x="14" y="12" width="2" height="1" fill="#4466AA"/>
  <!-- Bib -->
  <rect x="10" y="13" width="6" height="1" fill="#4466AA"/>
  <!-- Body of overalls -->
  <rect x="9" y="14" width="8" height="1" fill="#4466AA"/>
  <rect x="9" y="15" width="8" height="1" fill="#3355AA"/>
  <rect x="9" y="16" width="8" height="1" fill="#4466AA"/>
  <rect x="9" y="17" width="8" height="1" fill="#3355AA"/>
  <!-- Overall pocket -->
  <rect x="11" y="14" width="3" height="2" fill="#3355AA"/>
  <rect x="12" y="14" width="1" height="1" fill="#2244AA"/>
  <!-- Overall buttons -->
  <rect x="10" y="13" width="1" height="1" fill="#D4B030"/>
  <rect x="15" y="13" width="1" height="1" fill="#D4B030"/>

  <!-- === ARMS === -->
  <!-- Left arm (viewer's left, farmer's right - holds pickaxe) -->
  <rect x="7" y="12" width="2" height="1" fill="#E8C840"/>
  <rect x="6" y="13" width="2" height="1" fill="#E8C840"/>
  <rect x="5" y="14" width="2" height="2" fill="#E8C840"/>
  <!-- Left hand -->
  <rect x="5" y="16" width="2" height="1" fill="#E8B88A"/>
  <rect x="5" y="17" width="2" height="1" fill="#E8B88A"/>

  <!-- Right arm -->
  <rect x="17" y="12" width="2" height="1" fill="#E8C840"/>
  <rect x="18" y="13" width="2" height="2" fill="#E8C840"/>
  <!-- Right hand -->
  <rect x="18" y="15" width="2" height="1" fill="#E8B88A"/>

  <!-- === PICKAXE === -->
  <!-- Handle (held at side, going up-left) -->
  <rect x="5" y="18" width="1" height="1" fill="#8B4513"/>
  <rect x="4" y="19" width="1" height="1" fill="#8B4513"/>
  <rect x="4" y="20" width="1" height="1" fill="#6B3410"/>
  <rect x="3" y="21" width="1" height="1" fill="#6B3410"/>
  <rect x="3" y="22" width="1" height="1" fill="#8B4513"/>
  <rect x="2" y="23" width="1" height="1" fill="#8B4513"/>
  <rect x="2" y="24" width="1" height="1" fill="#6B3410"/>
  <!-- Pickaxe head at bottom -->
  <rect x="0" y="25" width="1" height="1" fill="#888888"/>
  <rect x="1" y="25" width="1" height="1" fill="#AAAAAA"/>
  <rect x="2" y="25" width="1" height="1" fill="#999999"/>
  <rect x="3" y="25" width="1" height="1" fill="#AAAAAA"/>
  <rect x="4" y="25" width="1" height="1" fill="#888888"/>
  <rect x="0" y="26" width="1" height="1" fill="#777777"/>
  <rect x="4" y="26" width="1" height="1" fill="#777777"/>
  <!-- Pick tips -->
  <rect x="0" y="24" width="1" height="1" fill="#666666"/>
  <rect x="5" y="26" width="1" height="1" fill="#666666"/>

  <!-- === LEGS === -->
  <!-- Left leg (id for animation) -->
  <g id="leg-left">
    <rect x="9" y="18" width="3" height="1" fill="#4466AA"/>
    <rect x="9" y="19" width="3" height="1" fill="#3355AA"/>
    <rect x="9" y="20" width="3" height="1" fill="#4466AA"/>
    <rect x="9" y="21" width="3" height="1" fill="#3355AA"/>
    <!-- Left boot -->
    <rect x="8" y="22" width="4" height="1" fill="#555555"/>
    <rect x="7" y="23" width="5" height="1" fill="#444444"/>
    <rect x="7" y="24" width="5" height="1" fill="#333333"/>
  </g>

  <!-- Right leg -->
  <g id="leg-right">
    <rect x="14" y="18" width="3" height="1" fill="#4466AA"/>
    <rect x="14" y="19" width="3" height="1" fill="#3355AA"/>
    <rect x="14" y="20" width="3" height="1" fill="#4466AA"/>
    <rect x="14" y="21" width="3" height="1" fill="#3355AA"/>
    <!-- Right boot -->
    <rect x="14" y="22" width="4" height="1" fill="#555555"/>
    <rect x="14" y="23" width="5" height="1" fill="#444444"/>
    <rect x="14" y="24" width="5" height="1" fill="#333333"/>
  </g>

  <!-- Gap between legs -->
  <rect x="12" y="18" width="2" height="4" fill="#2244AA"/>
</svg>
